<?xml version="1.0" standalone="no"?>
<!DOCTYPE svg PUBLIC "-//W3C//DTD SVG 20010904//EN"
 "http://www.w3.org/TR/2001/REC-SVG-20010904/DTD/svg10.dtd">
<svg version="1.0" xmlns="http://www.w3.org/2000/svg"
 width="463.000000pt" height="391.000000pt" viewBox="0 0 463.000000 391.000000"
 preserveAspectRatio="xMidYMid meet">

<g transform="translate(0.000000,391.000000) scale(0.100000,-0.100000)"
fill="#fff" stroke="none">
<path d="M2845 3671 c-3 -5 0 -33 6 -62 25 -114 -6 -268 -77 -389 -34 -58 -78
-100 -91 -86 -3 3 8 35 25 71 57 115 39 228 -43 283 -70 45 -157 18 -210 -65
-40 -64 -45 -138 -14 -230 24 -72 31 -185 16 -255 -7 -36 -6 -38 16 -38 49 0
184 42 235 73 74 44 155 127 217 222 122 188 133 378 26 448 -40 26 -97 41
-106 28z"/>
<path d="M1832 3649 c-41 -21 -92 -80 -92 -106 0 -8 12 -13 28 -13 42 0 201
-53 247 -82 77 -48 185 -173 185 -213 0 -26 -20 -17 -66 29 -42 42 -130 86
-172 86 -70 0 -135 -48 -152 -110 -28 -103 86 -229 208 -230 89 0 187 -22 255
-56 37 -19 69 -34 71 -34 2 0 10 31 16 69 10 54 10 89 0 166 -17 141 -64 228
-190 355 -142 144 -246 186 -338 139z"/>
<path d="M2825 2943 c-28 -10 -64 -28 -80 -39 -79 -56 -149 -81 -235 -85 -54
-3 -64 -7 -52 -22 5 -7 15 -28 22 -47 8 -19 31 -56 52 -81 21 -26 38 -50 38
-54 0 -17 88 -87 152 -120 136 -72 294 -105 409 -86 127 21 177 66 182 164 1
30 -1 59 -6 63 -4 4 -33 -4 -65 -19 -31 -14 -73 -31 -92 -36 -52 -15 -227 -15
-285 -1 -50 13 -115 48 -115 62 0 4 40 5 88 2 84 -6 91 -5 153 24 51 24 69 39
82 67 65 137 -87 265 -248 208z"/>
<path d="M1825 2922 c-115 -32 -211 -82 -282 -146 -117 -107 -133 -204 -47
-289 l28 -28 31 63 c40 83 154 197 233 233 31 14 64 30 73 35 9 4 37 11 63 15
37 6 46 4 46 -7 0 -8 -12 -20 -27 -27 -57 -26 -110 -67 -142 -110 -80 -105
-19 -245 107 -245 61 0 146 45 177 94 12 19 41 79 64 132 34 78 53 107 97 148
30 28 54 53 54 56 0 9 -148 73 -192 84 -83 20 -197 17 -283 -8z"/>
<path d="M2332 2731 c-59 -44 -162 -204 -162 -254 0 -9 -4 -25 -9 -35 -23 -40
-30 -161 -16 -260 20 -141 45 -204 107 -265 50 -49 116 -60 183 -33 31 13 48
36 27 36 -8 0 -73 83 -106 135 -58 92 -96 303 -66 361 18 33 40 13 40 -37 0
-90 87 -212 160 -224 56 -9 128 26 152 75 20 38 25 145 8 155 -6 4 -8 10 -5
15 11 17 -95 139 -121 140 -19 0 -114 107 -130 146 -8 19 -12 44 -9 55 9 27
-5 24 -53 -10z"/>
<path d="M2835 1802 c-92 -43 -83 -161 15 -202 60 -25 150 14 169 73 33 98
-81 177 -184 129z"/>
<path d="M978 1513 c-2 -160 -6 -227 -15 -230 -6 -2 -17 13 -24 34 -27 84
-102 143 -223 178 -147 43 -326 -31 -401 -166 -27 -49 -30 -63 -30 -144 0 -76
4 -98 26 -145 35 -72 77 -113 158 -152 63 -31 72 -32 186 -32 112 -1 124 1
170 26 59 33 85 52 85 64 0 6 -22 31 -48 57 l-49 48 -39 -23 c-58 -34 -174
-33 -226 2 -52 35 -60 80 -14 80 13 0 36 4 52 9 16 5 74 16 129 26 55 9 133
24 173 31 40 8 77 12 83 9 5 -4 9 -44 9 -91 0 -84 13 -128 52 -174 43 -51 170
-87 243 -69 l45 11 0 59 c0 32 4 60 9 64 5 3 19 -8 30 -23 11 -16 48 -44 82
-62 195 -104 431 -44 519 131 17 32 35 59 40 59 6 0 16 -12 23 -27 28 -63 88
-118 157 -144 108 -41 222 -30 282 27 37 36 52 24 45 -37 -7 -59 -27 -91 -75
-120 -33 -19 -48 -21 -133 -17 -75 4 -104 10 -136 28 -23 12 -48 20 -56 17
-13 -5 -67 -107 -67 -127 0 -16 90 -51 171 -67 233 -44 418 27 480 183 22 57
23 71 27 377 l3 318 -98 -3 -98 -3 -5 -30 c-3 -16 -8 -30 -12 -30 -4 0 -33 16
-64 35 -54 33 -64 35 -139 34 -131 -1 -225 -56 -281 -166 -13 -27 -28 -48 -33
-48 -5 0 -24 25 -41 55 -88 154 -308 207 -492 120 -71 -33 -121 -83 -153 -152
-20 -42 -25 -67 -25 -130 1 -43 7 -96 15 -118 12 -34 12 -42 1 -54 -18 -17
-81 2 -96 29 -6 11 -10 153 -10 359 l0 341 -105 0 -105 0 -2 -227z m-275 -165
c28 -14 67 -59 67 -76 0 -7 -10 -17 -22 -22 -36 -14 -248 -51 -258 -45 -28 17
13 115 58 139 32 18 125 21 155 4z m1043 -50 c59 -65 54 -183 -10 -247 -34
-34 -40 -36 -102 -36 -63 0 -67 2 -99 37 -56 61 -66 134 -28 215 40 86 172
103 239 31z m702 22 c42 -26 66 -80 59 -137 -6 -53 -28 -88 -69 -109 -65 -33
-190 -6 -219 48 -17 31 -16 118 1 153 31 63 158 87 228 45z"/>
<path d="M3270 1495 c-30 -9 -73 -27 -96 -40 -50 -29 -112 -97 -126 -136 -23
-67 -54 -4 -41 87 3 23 3 54 -1 68 -6 26 -7 26 -111 26 l-105 0 0 -319 c0
-282 2 -320 16 -325 21 -8 152 -8 183 1 22 6 23 9 20 87 -3 104 -1 126 11 126
5 0 17 -16 26 -36 83 -175 351 -240 532 -130 90 54 137 124 148 220 8 64 24
85 48 61 30 -30 123 -65 199 -75 104 -13 147 -32 147 -64 0 -60 -134 -75 -265
-30 -42 14 -78 24 -81 21 -3 -3 -16 -31 -29 -64 -22 -53 -23 -59 -8 -70 63
-48 318 -65 421 -30 104 37 159 112 148 200 -13 94 -67 135 -218 165 -147 30
-158 35 -158 71 0 20 7 34 19 41 29 15 172 12 221 -5 58 -21 58 -20 79 28 35
82 35 85 -1 100 -103 43 -267 46 -372 6 -64 -23 -125 -79 -133 -121 -10 -50
-29 -54 -57 -10 -78 124 -263 190 -416 147z m174 -164 c13 -6 36 -27 50 -48
21 -31 26 -49 26 -101 0 -68 -13 -103 -55 -142 -23 -21 -36 -25 -92 -25 -63 0
-65 1 -104 42 -39 42 -39 43 -39 120 1 86 12 114 56 144 32 21 114 26 158 10z"/>
<path d="M4421 1123 c0 -16 3 -22 6 -15 3 9 9 10 17 3 9 -8 13 -6 13 4 0 8 -7
15 -16 15 -14 0 -14 2 -1 10 13 8 12 10 -2 10 -13 0 -18 -8 -17 -27z"/>
</g>
</svg>
