<svg version="1.0" xmlns="http://www.w3.org/2000/svg" width="617.333" height="521.333" viewBox="0 0 463 391"><path d="M284.5 23.9c-.3.5 0 3.3.6 6.2 2.5 11.4-.6 26.8-7.7 38.9-3.4 5.8-7.8 10-9.1 8.6-.3-.3.8-3.5 2.5-7.1 5.7-11.5 3.9-22.8-4.3-28.3-7-4.5-15.7-1.8-21 6.5-4 6.4-4.5 13.8-1.4 23 2.4 7.2 3.1 18.5 1.6 25.5-.7 3.6-.6 3.8 1.6 3.8 4.9 0 18.4-4.2 23.5-7.3 7.4-4.4 15.5-12.7 21.7-22.2 12.2-18.8 13.3-37.8 2.6-44.8-4-2.6-9.7-4.1-10.6-2.8zm-101.3 2.2c-4.1 2.1-9.2 8-9.2 10.6 0 .8 1.2 1.3 2.8 1.3 4.2 0 20.1 5.3 24.7 8.2C209.2 51 220 63.5 220 67.5c0 2.6-2 1.7-6.6-2.9-4.2-4.2-13-8.6-17.2-8.6-7 0-13.5 4.8-15.2 11-2.8 10.3 8.6 22.9 20.8 23 8.9 0 18.7 2.2 25.5 5.6 3.7 1.9 6.9 3.4 7.1 3.4.2 0 1-3.1 1.6-6.9 1-5.4 1-8.9 0-16.6-1.7-14.1-6.4-22.8-19-35.5-14.2-14.4-24.6-18.6-33.8-13.9zm99.3 70.6c-2.8 1-6.4 2.8-8 3.9-7.9 5.6-14.9 8.1-23.5 8.5-5.4.3-6.4.7-5.2 2.2.5.7 1.5 2.8 2.2 4.7.8 1.9 3.1 5.6 5.2 8.1 2.1 2.6 3.8 5 3.8 5.4 0 1.7 8.8 8.7 15.2 12 13.6 7.2 29.4 10.5 40.9 8.6 12.7-2.1 17.7-6.6 18.2-16.4.1-3-.1-5.9-.6-6.3-.4-.4-3.3.4-6.5 1.9-3.1 1.4-7.3 3.1-9.2 3.6-5.2 1.5-22.7 1.5-28.5.1-5-1.3-11.5-4.8-11.5-6.2 0-.4 4-.5 8.8-.2 8.4.6 9.1.5 15.3-2.4 5.1-2.4 6.9-3.9 8.2-6.7 6.5-13.7-8.7-26.5-24.8-20.8zm-100 2.1c-11.5 3.2-21.1 8.2-28.2 14.6-11.7 10.7-13.3 20.4-4.7 28.9l2.8 2.8 3.1-6.3c4-8.3 15.4-19.7 23.3-23.3 3.1-1.4 6.4-3 7.3-3.5.9-.4 3.7-1.1 6.3-1.5 3.7-.6 4.6-.4 4.6.7 0 .8-1.2 2-2.7 2.7-5.7 2.6-11 6.7-14.2 11-8 10.5-1.9 24.5 10.7 24.5 6.1 0 14.6-4.5 17.7-9.4 1.2-1.9 4.1-7.9 6.4-13.2 3.4-7.8 5.3-10.7 9.7-14.8 3-2.8 5.4-5.3 5.4-5.6 0-.9-14.8-7.3-19.2-8.4-8.3-2-19.7-1.7-28.3.8zm50.7 19.1c-5.9 4.4-16.2 20.4-16.2 25.4 0 .9-.4 2.5-.9 3.5-2.3 4-3 16.1-1.6 26 2 14.1 4.5 20.4 10.7 26.5 5 4.9 11.6 6 18.3 3.3 3.1-1.3 4.8-3.6 2.7-3.6-.8 0-7.3-8.3-10.6-13.5-5.8-9.2-9.6-30.3-6.6-36.1 1.8-3.3 4-1.3 4 3.7 0 9 8.7 21.2 16 22.4 5.6.9 12.8-2.6 15.2-7.5 2-3.8 2.5-14.5.8-15.5-.6-.4-.8-1-.5-1.5 1.1-1.7-9.5-13.9-12.1-14-1.9 0-11.4-10.7-13-14.6-.8-1.9-1.2-4.4-.9-5.5.9-2.7-.5-2.4-5.3 1zm50.3 92.9c-9.2 4.3-8.3 16.1 1.5 20.2 6 2.5 15-1.4 16.9-7.3 3.3-9.8-8.1-17.7-18.4-12.9zM97.8 239.7c-.2 16-.6 22.7-1.5 23-.6.2-1.7-1.3-2.4-3.4-2.7-8.4-10.2-14.3-22.3-17.8-14.7-4.3-32.6 3.1-40.1 16.6-2.7 4.9-3 6.3-3 14.4 0 7.6.4 9.8 2.6 14.5 3.5 7.2 7.7 11.3 15.8 15.2 6.3 3.1 7.2 3.2 18.6 3.2 11.2.1 12.4-.1 17-2.6 5.9-3.3 8.5-5.2 8.5-6.4 0-.6-2.2-3.1-4.8-5.7l-4.9-4.8-3.9 2.3c-5.8 3.4-17.4 3.3-22.6-.2-5.2-3.5-6-8-1.4-8 1.3 0 3.6-.4 5.2-.9s7.4-1.6 12.9-2.6c5.5-.9 13.3-2.4 17.3-3.1 4-.8 7.7-1.2 8.3-.9.5.4.9 4.4.9 9.1 0 8.4 1.3 12.8 5.2 17.4 4.3 5.1 17 8.7 24.3 6.9l4.5-1.1v-5.9c0-3.2.4-6 .9-6.4.5-.3 1.9.8 3 2.3 1.1 1.6 4.8 4.4 8.2 6.2 19.5 10.4 43.1 4.4 51.9-13.1 1.7-3.2 3.5-5.9 4-5.9.6 0 1.6 1.2 2.3 2.7 2.8 6.3 8.8 11.8 15.7 14.4 10.8 4.1 22.2 3 28.2-2.7 3.7-3.6 5.2-2.4 4.5 3.7-.7 5.9-2.7 9.1-7.5 12-3.3 1.9-4.8 2.1-13.3 1.7-7.5-.4-10.4-1-13.6-2.8-2.3-1.2-4.8-2-5.6-1.7-1.3.5-6.7 10.7-6.7 12.7 0 1.6 9 5.1 17.1 6.7 23.3 4.4 41.8-2.7 48-18.3 2.2-5.7 2.3-7.1 2.7-37.7l.3-31.8-9.8.3-9.8.3-.5 3c-.3 1.6-.8 3-1.2 3-.4 0-3.3-1.6-6.4-3.5-5.4-3.3-6.4-3.5-13.9-3.4-13.1.1-22.5 5.6-28.1 16.6-1.3 2.7-2.8 4.8-3.3 4.8s-2.4-2.5-4.1-5.5c-8.8-15.4-30.8-20.7-49.2-12-7.1 3.3-12.1 8.3-15.3 15.2-2 4.2-2.5 6.7-2.5 13 .1 4.3.7 9.6 1.5 11.8 1.2 3.4 1.2 4.2.1 5.4-1.8 1.7-8.1-.2-9.6-2.9-.6-1.1-1-15.3-1-35.9V217H98l-.2 22.7zm-27.5 16.5c2.8 1.4 6.7 5.9 6.7 7.6 0 .7-1 1.7-2.2 2.2-3.6 1.4-24.8 5.1-25.8 4.5-2.8-1.7 1.3-11.5 5.8-13.9 3.2-1.8 12.5-2.1 15.5-.4zm104.3 5c5.9 6.5 5.4 18.3-1 24.7-3.4 3.4-4 3.6-10.2 3.6-6.3 0-6.7-.2-9.9-3.7-5.6-6.1-6.6-13.4-2.8-21.5 4-8.6 17.2-10.3 23.9-3.1zm70.2-2.2c4.2 2.6 6.6 8 5.9 13.7-.6 5.3-2.8 8.8-6.9 10.9-6.5 3.3-19 .6-21.9-4.8-1.7-3.1-1.6-11.8.1-15.3 3.1-6.3 15.8-8.7 22.8-4.5zm82.2-17.5c-3 .9-7.3 2.7-9.6 4-5 2.9-11.2 9.7-12.6 13.6-2.3 6.7-5.4.4-4.1-8.7.3-2.3.3-5.4-.1-6.8-.6-2.6-.7-2.6-11.1-2.6H279v31.9c0 28.2.2 32 1.6 32.5 2.1.8 15.2.8 18.3-.1 2.2-.6 2.3-.9 2-8.7-.3-10.4-.1-12.6 1.1-12.6.5 0 1.7 1.6 2.6 3.6 8.3 17.5 35.1 24 53.2 13 9-5.4 13.7-12.4 14.8-22 .8-6.4 2.4-8.5 4.8-6.1 3 3 12.3 6.5 19.9 7.5 10.4 1.3 14.7 3.2 14.7 6.4 0 6-13.4 7.5-26.5 3-4.2-1.4-7.8-2.4-8.1-2.1-.3.3-1.6 3.1-2.9 6.4-2.2 5.3-2.3 5.9-.8 7 6.3 4.8 31.8 6.5 42.1 3 10.4-3.7 15.9-11.2 14.8-20-1.3-9.4-6.7-13.5-21.8-16.5-14.7-3-15.8-3.5-15.8-7.1 0-2 .7-3.4 1.9-4.1 2.9-1.5 17.2-1.2 22.1.5 5.8 2.1 5.8 2 7.9-2.8 3.5-8.2 3.5-8.5-.1-10-10.3-4.3-26.7-4.6-37.2-.6-6.4 2.3-12.5 7.9-13.3 12.1-1 5-2.9 5.4-5.7 1-7.8-12.4-26.3-19-41.6-14.7zm17.4 16.4c1.3.6 3.6 2.7 5 4.8 2.1 3.1 2.6 4.9 2.6 10.1 0 6.8-1.3 10.3-5.5 14.2-2.3 2.1-3.6 2.5-9.2 2.5-6.3 0-6.5-.1-10.4-4.2-3.9-4.2-3.9-4.3-3.9-12 .1-8.6 1.2-11.4 5.6-14.4 3.2-2.1 11.4-2.6 15.8-1zm97.7 20.8c0 1.6.3 2.2.6 1.5.3-.9.9-1 1.7-.3.9.8 1.3.6 1.3-.4 0-.8-.7-1.5-1.6-1.5-1.4 0-1.4-.2-.1-1 1.3-.8 1.2-1-.2-1-1.3 0-1.8.8-1.7 2.7z"/></svg>